<?xml version="1.0" encoding="utf-8"?>
<!-- Generator: Adobe Illustrator 27.0.0, SVG Export Plug-In . SVG Version: 6.00 Build 0)  -->
<svg version="1.1" id="레이어_1" xmlns="http://www.w3.org/2000/svg" xmlns:xlink="http://www.w3.org/1999/xlink" x="0px"
	 y="0px" viewBox="0 0 59.4 55.9" style="enable-background:new 0 0 59.4 55.9;" xml:space="preserve">
<style type="text/css">
	.st0{fill:#B5D0EA;}
	.st1{fill:#040000;}
</style>
<g>
	<circle class="st0" cx="42.3" cy="41.3" r="8.9"/>
	<g>
		<g>
			<rect x="9.1" y="10.4" class="st1" width="36" height="1.8"/>
		</g>
		<g>
			<rect x="26.2" y="5.7" class="st1" width="1.8" height="3.5"/>
		</g>
		<g>
			<rect x="26.2" y="13.6" class="st1" width="1.8" height="26.6"/>
		</g>
		<g>
			<rect x="17.2" y="38.3" class="st1" width="19.9" height="1.8"/>
		</g>
		<g>
			<rect x="12.6" y="41.7" class="st1" width="29" height="1.8"/>
		</g>
		<g>
			<path class="st1" d="M15.1,29.3c-3.8,0-6.9-3.1-6.9-6.9v-1.1h13.9v1.1C22.1,26.2,19,29.3,15.1,29.3z M10.1,23
				c0.3,2.5,2.5,4.4,5.1,4.4s4.7-1.9,5.1-4.4C20.2,23,10.1,23,10.1,23z"/>
		</g>
		<g>
			<rect x="14.2" y="13.8" class="st1" width="1.8" height="5.7"/>
		</g>
		<g>
			<path class="st1" d="M39.1,29.3c-3.8,0-6.9-3.1-6.9-6.9v-1.1h13.9v1.1C46.1,26.2,43,29.3,39.1,29.3z M34.1,23
				c0.3,2.5,2.5,4.4,5.1,4.4c2.6,0,4.7-1.9,5.1-4.4C44.2,23,34.1,23,34.1,23z"/>
		</g>
		<g>
			<rect x="38.2" y="13.8" class="st1" width="1.8" height="5.7"/>
		</g>
	</g>
</g>
</svg>
